<?xml version="1.0" encoding="iso-8859-1"?>
<!-- Generator: Adobe Illustrator 19.0.0, SVG Export Plug-In . SVG Version: 6.00 Build 0)  -->
<svg fill="#ec663d" version="1.1" id="Capa_1" xmlns="http://www.w3.org/2000/svg" xmlns:xlink="http://www.w3.org/1999/xlink" x="0px" y="0px"
	 viewBox="0 0 512 512" style="enable-background:new 0 0 512 512;" xml:space="preserve">
<g>
	<g>
		<g>
			<path d="M117.547,234.667H10.88c-5.888,0-10.667,4.779-10.667,10.667v256C0.213,507.221,4.992,512,10.88,512h106.667
				c5.909,0,10.667-4.779,10.667-10.667v-256C128.213,239.445,123.435,234.667,117.547,234.667z M106.88,490.667H21.547V256h85.333
				V490.667z"/>
			<path d="M309.12,0H202.453c-5.888,0-10.667,4.779-10.667,10.667v490.667c0,5.888,4.779,10.667,10.667,10.667H309.12
				c5.888,0,10.667-4.779,10.667-10.667V10.667C319.787,4.779,315.008,0,309.12,0z M298.453,490.667H213.12V21.333h85.333V490.667z"
				/>
			<path d="M501.12,106.667H394.453c-5.888,0-10.667,4.779-10.667,10.667v384c0,5.888,4.779,10.667,10.667,10.667H501.12
				c5.888,0,10.667-4.779,10.667-10.667v-384C511.787,111.445,507.008,106.667,501.12,106.667z M490.453,490.667H405.12V128h85.333
				V490.667z"/>
		</g>
	</g>
</g>
<g>
</g>
<g>
</g>
<g>
</g>
<g>
</g>
<g>
</g>
<g>
</g>
<g>
</g>
<g>
</g>
<g>
</g>
<g>
</g>
<g>
</g>
<g>
</g>
<g>
</g>
<g>
</g>
<g>
</g>
</svg>
