<?xml version="1.0" encoding="utf-8"?>
<!-- Generator: Adobe Illustrator 24.1.1, SVG Export Plug-In . SVG Version: 6.00 Build 0)  -->
<svg fill="#f1f2f3" version="1.1" id="Layer_1" xmlns="http://www.w3.org/2000/svg" xmlns:xlink="http://www.w3.org/1999/xlink" x="0px" y="0px"
	 viewBox="0 0 100 100" style="enable-background:new 0 0 100 100;" xml:space="preserve">
<g>
	<circle cx="18" cy="42" r="1"/>
	<circle cx="24" cy="42" r="1"/>
	<circle cx="30" cy="42" r="1"/>
	<circle cx="36" cy="42" r="1"/>
	<circle cx="42" cy="42" r="1"/>
	<circle cx="48" cy="42" r="1"/>
	<circle cx="54" cy="42" r="1"/>
	<circle cx="18" cy="42" r="1"/>
	<circle cx="18" cy="42" r="1"/>
	<circle cx="18" cy="42" r="1"/>
	<circle cx="24" cy="42" r="1"/>
	<circle cx="30" cy="42" r="1"/>
	<circle cx="36" cy="42" r="1"/>
	<circle cx="42" cy="42" r="1"/>
	<circle cx="48" cy="42" r="1"/>
	<circle cx="54" cy="42" r="1"/>
	<circle cx="24" cy="42" r="1"/>
	<circle cx="24" cy="42" r="1"/>
	<circle cx="24" cy="42" r="1"/>
	<circle cx="30" cy="42" r="1"/>
	<circle cx="36" cy="42" r="1"/>
	<circle cx="42" cy="42" r="1"/>
	<circle cx="48" cy="42" r="1"/>
	<circle cx="54" cy="42" r="1"/>
	<circle cx="30" cy="42" r="1"/>
	<circle cx="30" cy="42" r="1"/>
	<circle cx="30" cy="42" r="1"/>
	<circle cx="36" cy="42" r="1"/>
	<circle cx="42" cy="42" r="1"/>
	<circle cx="48" cy="42" r="1"/>
	<circle cx="54" cy="42" r="1"/>
	<circle cx="36" cy="42" r="1"/>
	<circle cx="36" cy="42" r="1"/>
	<circle cx="36" cy="42" r="1"/>
	<circle cx="42" cy="42" r="1"/>
	<circle cx="48" cy="42" r="1"/>
	<circle cx="54" cy="42" r="1"/>
	<circle cx="16" cy="48" r="1"/>
	<circle cx="16" cy="48" r="1"/>
	<circle cx="16" cy="48" r="1"/>
	<circle cx="22" cy="48" r="1"/>
	<circle cx="28" cy="48" r="1"/>
	<circle cx="34" cy="48" r="1"/>
	<circle cx="40" cy="48" r="1"/>
	<circle cx="46" cy="48" r="1"/>
	<circle cx="52" cy="48" r="1"/>
	<circle cx="58" cy="48" r="1"/>
	<circle cx="22" cy="48" r="1"/>
	<circle cx="22" cy="48" r="1"/>
	<circle cx="22" cy="48" r="1"/>
	<circle cx="28" cy="48" r="1"/>
	<circle cx="34" cy="48" r="1"/>
	<circle cx="40" cy="48" r="1"/>
	<circle cx="46" cy="48" r="1"/>
	<circle cx="52" cy="48" r="1"/>
	<circle cx="58" cy="48" r="1"/>
	<circle cx="64" cy="48" r="1"/>
	<circle cx="28" cy="48" r="1"/>
	<circle cx="28" cy="48" r="1"/>
	<circle cx="28" cy="48" r="1"/>
	<circle cx="34" cy="48" r="1"/>
	<circle cx="40" cy="48" r="1"/>
	<circle cx="46" cy="48" r="1"/>
	<circle cx="52" cy="48" r="1"/>
	<circle cx="58" cy="48" r="1"/>
	<circle cx="64" cy="48" r="1"/>
	<circle cx="70" cy="48" r="1"/>
	<circle cx="40" cy="48" r="1"/>
	<circle cx="40" cy="48" r="1"/>
	<circle cx="40" cy="48" r="1"/>
	<circle cx="46" cy="48" r="1"/>
	<circle cx="52" cy="48" r="1"/>
	<circle cx="58" cy="48" r="1"/>
	<circle cx="64" cy="48" r="1"/>
	<circle cx="70" cy="48" r="1"/>
	<circle cx="76" cy="48" r="1"/>
	<circle cx="82" cy="48" r="1"/>
</g>
<g>
	<circle cx="12" cy="54" r="1"/>
	<circle cx="12" cy="54" r="1"/>
	<circle cx="12" cy="54" r="1"/>
	<circle cx="18" cy="54" r="1"/>
	<circle cx="24" cy="54" r="1"/>
	<circle cx="30" cy="54" r="1"/>
	<circle cx="36" cy="54" r="1"/>
	<circle cx="42" cy="54" r="1"/>
	<circle cx="48" cy="54" r="1"/>
	<circle cx="54" cy="54" r="1"/>
	<circle cx="18" cy="54" r="1"/>
	<circle cx="18" cy="54" r="1"/>
	<circle cx="18" cy="54" r="1"/>
	<circle cx="24" cy="54" r="1"/>
	<circle cx="30" cy="54" r="1"/>
	<circle cx="36" cy="54" r="1"/>
	<circle cx="42" cy="54" r="1"/>
	<circle cx="48" cy="54" r="1"/>
	<circle cx="54" cy="54" r="1"/>
	<circle cx="60" cy="54" r="1"/>
	<circle cx="24" cy="54" r="1"/>
	<circle cx="24" cy="54" r="1"/>
	<circle cx="24" cy="54" r="1"/>
	<circle cx="30" cy="54" r="1"/>
	<circle cx="36" cy="54" r="1"/>
	<circle cx="42" cy="54" r="1"/>
	<circle cx="48" cy="54" r="1"/>
	<circle cx="54" cy="54" r="1"/>
	<circle cx="60" cy="54" r="1"/>
	<circle cx="66" cy="54" r="1"/>
	<circle cx="30" cy="54" r="1"/>
	<circle cx="30" cy="54" r="1"/>
	<circle cx="30" cy="54" r="1"/>
	<circle cx="36" cy="54" r="1"/>
	<circle cx="42" cy="54" r="1"/>
	<circle cx="48" cy="54" r="1"/>
	<circle cx="54" cy="54" r="1"/>
	<circle cx="60" cy="54" r="1"/>
	<circle cx="66" cy="54" r="1"/>
	<circle cx="72" cy="54" r="1"/>
	<circle cx="36" cy="54" r="1"/>
	<circle cx="36" cy="54" r="1"/>
	<circle cx="36" cy="54" r="1"/>
	<circle cx="42" cy="54" r="1"/>
	<circle cx="48" cy="54" r="1"/>
	<circle cx="54" cy="54" r="1"/>
	<circle cx="60" cy="54" r="1"/>
	<circle cx="66" cy="54" r="1"/>
	<circle cx="72" cy="54" r="1"/>
	<circle cx="78" cy="54" r="1"/>
	<circle cx="16" cy="60" r="1"/>
	<circle cx="16" cy="60" r="1"/>
	<circle cx="16" cy="60" r="1"/>
	<circle cx="22" cy="60" r="1"/>
	<circle cx="28" cy="60" r="1"/>
	<circle cx="34" cy="60" r="1"/>
	<circle cx="40" cy="60" r="1"/>
	<circle cx="46" cy="60" r="1"/>
	<circle cx="52" cy="60" r="1"/>
	<circle cx="58" cy="60" r="1"/>
	<circle cx="22" cy="60" r="1"/>
	<circle cx="22" cy="60" r="1"/>
	<circle cx="22" cy="60" r="1"/>
	<circle cx="28" cy="60" r="1"/>
	<circle cx="34" cy="60" r="1"/>
	<circle cx="40" cy="60" r="1"/>
	<circle cx="46" cy="60" r="1"/>
	<circle cx="52" cy="60" r="1"/>
	<circle cx="58" cy="60" r="1"/>
	<circle cx="64" cy="60" r="1"/>
	<circle cx="28" cy="60" r="1"/>
	<circle cx="28" cy="60" r="1"/>
	<circle cx="28" cy="60" r="1"/>
	<circle cx="34" cy="60" r="1"/>
	<circle cx="40" cy="60" r="1"/>
	<circle cx="46" cy="60" r="1"/>
	<circle cx="52" cy="60" r="1"/>
	<circle cx="58" cy="60" r="1"/>
	<circle cx="64" cy="60" r="1"/>
	<circle cx="70" cy="60" r="1"/>
	<circle cx="40" cy="60" r="1"/>
	<circle cx="40" cy="60" r="1"/>
	<circle cx="40" cy="60" r="1"/>
	<circle cx="46" cy="60" r="1"/>
	<circle cx="52" cy="60" r="1"/>
	<circle cx="58" cy="60" r="1"/>
	<circle cx="64" cy="60" r="1"/>
	<circle cx="70" cy="60" r="1"/>
	<circle cx="76" cy="60" r="1"/>
	<circle cx="82" cy="60" r="1"/>
</g>
<g>
	<circle cx="12" cy="66" r="1"/>
	<circle cx="12" cy="66" r="1"/>
	<circle cx="12" cy="66" r="1"/>
	<circle cx="18" cy="66" r="1"/>
	<circle cx="24" cy="66" r="1"/>
	<circle cx="30" cy="66" r="1"/>
	<circle cx="36" cy="66" r="1"/>
	<circle cx="42" cy="66" r="1"/>
	<circle cx="48" cy="66" r="1"/>
	<circle cx="54" cy="66" r="1"/>
	<circle cx="18" cy="66" r="1"/>
	<circle cx="18" cy="66" r="1"/>
	<circle cx="18" cy="66" r="1"/>
	<circle cx="24" cy="66" r="1"/>
	<circle cx="30" cy="66" r="1"/>
	<circle cx="36" cy="66" r="1"/>
	<circle cx="42" cy="66" r="1"/>
	<circle cx="48" cy="66" r="1"/>
	<circle cx="54" cy="66" r="1"/>
	<circle cx="60" cy="66" r="1"/>
	<circle cx="24" cy="66" r="1"/>
	<circle cx="24" cy="66" r="1"/>
	<circle cx="24" cy="66" r="1"/>
	<circle cx="30" cy="66" r="1"/>
	<circle cx="36" cy="66" r="1"/>
	<circle cx="42" cy="66" r="1"/>
	<circle cx="48" cy="66" r="1"/>
	<circle cx="54" cy="66" r="1"/>
	<circle cx="60" cy="66" r="1"/>
	<circle cx="66" cy="66" r="1"/>
	<circle cx="30" cy="66" r="1"/>
	<circle cx="30" cy="66" r="1"/>
	<circle cx="30" cy="66" r="1"/>
	<circle cx="36" cy="66" r="1"/>
	<circle cx="42" cy="66" r="1"/>
	<circle cx="48" cy="66" r="1"/>
	<circle cx="54" cy="66" r="1"/>
	<circle cx="60" cy="66" r="1"/>
	<circle cx="66" cy="66" r="1"/>
	<circle cx="72" cy="66" r="1"/>
	<circle cx="36" cy="66" r="1"/>
	<circle cx="36" cy="66" r="1"/>
	<circle cx="36" cy="66" r="1"/>
	<circle cx="42" cy="66" r="1"/>
	<circle cx="48" cy="66" r="1"/>
	<circle cx="54" cy="66" r="1"/>
	<circle cx="60" cy="66" r="1"/>
	<circle cx="66" cy="66" r="1"/>
	<circle cx="72" cy="66" r="1"/>
	<circle cx="78" cy="66" r="1"/>
	<circle cx="28" cy="72" r="1"/>
	<circle cx="34" cy="72" r="1"/>
	<circle cx="40" cy="72" r="1"/>
	<circle cx="46" cy="72" r="1"/>
	<circle cx="52" cy="72" r="1"/>
	<circle cx="58" cy="72" r="1"/>
	<circle cx="28" cy="72" r="1"/>
	<circle cx="34" cy="72" r="1"/>
	<circle cx="40" cy="72" r="1"/>
	<circle cx="46" cy="72" r="1"/>
	<circle cx="52" cy="72" r="1"/>
	<circle cx="58" cy="72" r="1"/>
	<circle cx="64" cy="72" r="1"/>
	<circle cx="28" cy="72" r="1"/>
	<circle cx="28" cy="72" r="1"/>
	<circle cx="28" cy="72" r="1"/>
	<circle cx="34" cy="72" r="1"/>
	<circle cx="40" cy="72" r="1"/>
	<circle cx="46" cy="72" r="1"/>
	<circle cx="52" cy="72" r="1"/>
	<circle cx="58" cy="72" r="1"/>
	<circle cx="64" cy="72" r="1"/>
	<circle cx="70" cy="72" r="1"/>
	<circle cx="40" cy="72" r="1"/>
	<circle cx="40" cy="72" r="1"/>
	<circle cx="40" cy="72" r="1"/>
	<circle cx="46" cy="72" r="1"/>
	<circle cx="52" cy="72" r="1"/>
	<circle cx="58" cy="72" r="1"/>
	<circle cx="64" cy="72" r="1"/>
	<circle cx="70" cy="72" r="1"/>
	<circle cx="76" cy="72" r="1"/>
	<circle cx="82" cy="72" r="1"/>
</g>
<g>
	<circle cx="12" cy="78" r="1"/>
	<circle cx="12" cy="78" r="1"/>
	<circle cx="12" cy="78" r="1"/>
	<circle cx="18" cy="78" r="1"/>
	<circle cx="24" cy="78" r="1"/>
	<circle cx="30" cy="78" r="1"/>
	<circle cx="36" cy="78" r="1"/>
	<circle cx="42" cy="78" r="1"/>
	<circle cx="48" cy="78" r="1"/>
	<circle cx="54" cy="78" r="1"/>
	<circle cx="18" cy="78" r="1"/>
	<circle cx="18" cy="78" r="1"/>
	<circle cx="18" cy="78" r="1"/>
	<circle cx="24" cy="78" r="1"/>
	<circle cx="30" cy="78" r="1"/>
	<circle cx="36" cy="78" r="1"/>
	<circle cx="42" cy="78" r="1"/>
	<circle cx="48" cy="78" r="1"/>
	<circle cx="54" cy="78" r="1"/>
	<circle cx="60" cy="78" r="1"/>
	<circle cx="24" cy="78" r="1"/>
	<circle cx="24" cy="78" r="1"/>
	<circle cx="24" cy="78" r="1"/>
	<circle cx="30" cy="78" r="1"/>
	<circle cx="36" cy="78" r="1"/>
	<circle cx="42" cy="78" r="1"/>
	<circle cx="48" cy="78" r="1"/>
	<circle cx="54" cy="78" r="1"/>
	<circle cx="60" cy="78" r="1"/>
	<circle cx="66" cy="78" r="1"/>
	<circle cx="30" cy="78" r="1"/>
	<circle cx="30" cy="78" r="1"/>
	<circle cx="30" cy="78" r="1"/>
	<circle cx="36" cy="78" r="1"/>
	<circle cx="42" cy="78" r="1"/>
	<circle cx="48" cy="78" r="1"/>
	<circle cx="54" cy="78" r="1"/>
	<circle cx="60" cy="78" r="1"/>
	<circle cx="66" cy="78" r="1"/>
	<circle cx="72" cy="78" r="1"/>
	<circle cx="36" cy="78" r="1"/>
	<circle cx="36" cy="78" r="1"/>
	<circle cx="36" cy="78" r="1"/>
	<circle cx="42" cy="78" r="1"/>
	<circle cx="48" cy="78" r="1"/>
	<circle cx="54" cy="78" r="1"/>
	<circle cx="60" cy="78" r="1"/>
	<circle cx="66" cy="78" r="1"/>
	<circle cx="72" cy="78" r="1"/>
	<circle cx="78" cy="78" r="1"/>
</g>
</svg>
