<?xml version="1.0" encoding="utf-8"?>
<!-- Generator: Adobe Illustrator 24.1.1, SVG Export Plug-In . SVG Version: 6.00 Build 0)  -->
<svg version="1.1" id="Layer_1" xmlns="http://www.w3.org/2000/svg" xmlns:xlink="http://www.w3.org/1999/xlink" x="0px" y="0px"
	 viewBox="0 0 25 25" style="enable-background:new 0 0 25 25;" xml:space="preserve">
<style type="text/css">
	.st0{fill:url(#SVGID_1_);}
	.st1{display:none;}
	.st2{display:inline;fill:#FFFFFF;}
	.st3{fill:#FFFFFF;}
</style>
<radialGradient id="SVGID_1_" cx="12.5" cy="12.5" r="14.362" fx="23.6053" fy="3.3928" gradientTransform="matrix(1 0 0 -1.1619 0 27.0237)" gradientUnits="userSpaceOnUse">
	<stop  offset="4.718153e-02" style="stop-color:#7086E6"/>
	<stop  offset="0.4767" style="stop-color:#313131"/>
</radialGradient>
<path class="st0" d="M6.8,0h11.3C21.9,0,25,3.1,25,6.8v11.3c0,3.8-3.1,6.8-6.8,6.8H6.8C3.1,25,0,21.9,0,18.2V6.8C0,3.1,3.1,0,6.8,0z
	"/>
<g class="st1">
	<path class="st2" d="M1.1,15.9l1.8-8h4.2l1.8,8H6.1L5.9,15H4.1l-0.2,0.9H1.1z M4.9,10.1l-0.5,2.8h1.2l-0.4-2.8H4.9z"/>
	<path class="st2" d="M12.4,14.2H12v1.7H9.2v-8h3.2c1.3,0,2.2,0.2,2.8,0.7S16,9.8,16,11s-0.3,2-0.9,2.5C14.6,14,13.6,14.2,12.4,14.2
		z M12,12h0.3c0.3,0,0.6-0.1,0.7-0.2c0.1-0.2,0.2-0.4,0.2-0.8c0-0.4-0.1-0.6-0.2-0.7c-0.1-0.1-0.4-0.2-0.8-0.2H12V12z"/>
	<path class="st2" d="M19.7,14.2h-0.4v1.7h-2.8v-8h3.2c1.3,0,2.2,0.2,2.8,0.7s0.9,1.3,0.9,2.5s-0.3,2-0.9,2.5
		C21.9,14,21,14.2,19.7,14.2z M19.3,12h0.3c0.3,0,0.6-0.1,0.7-0.2c0.1-0.2,0.2-0.4,0.2-0.8c0-0.4-0.1-0.6-0.2-0.7
		c-0.1-0.1-0.4-0.2-0.8-0.2h-0.3L19.3,12L19.3,12z"/>
</g>
<g>
	<path class="st3" d="M1.1,15.9l1.8-8h4.2l1.8,8H6.1L5.9,15H4.1l-0.2,0.9H1.1z M4.9,10.1l-0.5,2.8h1.2l-0.4-2.8H4.9z"/>
	<path class="st3" d="M12.4,14.2H12v1.7H9.2v-8h3.2c1.3,0,2.2,0.2,2.8,0.7S16,9.8,16,11s-0.3,2-0.9,2.5C14.6,14,13.6,14.2,12.4,14.2
		z M12,12h0.3c0.3,0,0.6-0.1,0.7-0.2c0.1-0.2,0.2-0.4,0.2-0.8c0-0.4-0.1-0.6-0.2-0.7c-0.1-0.1-0.4-0.2-0.8-0.2H12V12z"/>
	<path class="st3" d="M19.7,14.2h-0.4v1.7h-2.8v-8h3.2c1.3,0,2.2,0.2,2.8,0.7s0.9,1.3,0.9,2.5s-0.3,2-0.9,2.5
		C21.9,14,21,14.2,19.7,14.2z M19.3,12h0.3c0.3,0,0.6-0.1,0.7-0.2c0.1-0.2,0.2-0.4,0.2-0.8c0-0.4-0.1-0.6-0.2-0.7
		c-0.1-0.1-0.4-0.2-0.8-0.2h-0.3L19.3,12L19.3,12z"/>
</g>
</svg>
