<?xml version="1.0" encoding="iso-8859-1"?>
<!-- Generator: Adobe Illustrator 19.0.0, SVG Export Plug-In . SVG Version: 6.00 Build 0)  -->
<svg fill="#ec663d" version="1.1" id="Layer_1" xmlns="http://www.w3.org/2000/svg" xmlns:xlink="http://www.w3.org/1999/xlink" x="0px" y="0px"
	 viewBox="0 0 512 512" style="enable-background:new 0 0 512 512;" xml:space="preserve">
<g>
	<g>
		<g>
			<path d="M128,362.667c11.776,0,21.333-9.557,21.333-21.333c0-11.776-9.557-21.333-21.333-21.333s-21.333,9.557-21.333,21.333
				C106.667,353.109,116.224,362.667,128,362.667z"/>
			<path d="M64,362.667c11.776,0,21.333-9.557,21.333-21.333C85.333,329.557,75.776,320,64,320s-21.333,9.557-21.333,21.333
				C42.667,353.109,52.224,362.667,64,362.667z"/>
			<path d="M507.968,302.187c-0.021-0.064-0.021-0.128-0.043-0.192L401.152,88.32c-0.192-0.384-0.427-0.768-0.683-1.152
				C393.173,73.045,378.475,64,362.624,64H149.291c-15.829,0-30.507,9.024-37.803,23.104c-0.277,0.384-0.512,0.811-0.725,1.237
				L3.989,302.016c-0.064,0.149-0.064,0.299-0.128,0.448C1.429,307.84,0,313.728,0,320v85.333C0,428.864,19.136,448,42.667,448
				h426.667C492.864,448,512,428.864,512,405.333V320C512,313.621,510.507,307.627,507.968,302.187z M129.301,99.029
				c0.32-0.448,0.597-0.917,0.832-1.429c3.605-7.552,10.944-12.245,19.2-12.245h213.333c8.256,0,15.616,4.693,19.2,12.245
				c0.235,0.469,0.491,0.917,0.789,1.365l89.28,178.624c-0.875-0.043-1.707-0.256-2.603-0.256H42.667
				c-0.896,0-1.728,0.213-2.603,0.256L129.301,99.029z M490.667,405.333c0,11.755-9.579,21.333-21.333,21.333H42.667
				c-11.755,0-21.333-9.579-21.333-21.333V320c0-11.755,9.579-21.333,21.333-21.333h426.667c11.755,0,21.333,9.579,21.333,21.333
				V405.333z"/>
			<path d="M458.667,384H53.333c-5.888,0-10.667,4.779-10.667,10.667s4.779,10.667,10.667,10.667h405.333
				c5.888,0,10.667-4.779,10.667-10.667S464.555,384,458.667,384z"/>
		</g>
	</g>
</g>
<g>
</g>
<g>
</g>
<g>
</g>
<g>
</g>
<g>
</g>
<g>
</g>
<g>
</g>
<g>
</g>
<g>
</g>
<g>
</g>
<g>
</g>
<g>
</g>
<g>
</g>
<g>
</g>
<g>
</g>
</svg>
