<?xml version="1.0" encoding="utf-8"?>
<!-- Generator: Adobe Illustrator 24.1.1, SVG Export Plug-In . SVG Version: 6.00 Build 0)  -->
<svg fill="#ffffff" version="1.1" id="Layer_1" xmlns="http://www.w3.org/2000/svg" xmlns:xlink="http://www.w3.org/1999/xlink" x="0px" y="0px"
	 viewBox="0 0 57.1 58.4" style="enable-background:new 0 0 57.1 58.4;" xml:space="preserve">
<g>
	<path class="st0" d="M11.4,1.3c0.7-0.1,1.4,0,2,0.2c0.9,0.1,1.7,0.3,2.5,0.7l3,19c-1.4,1.4-3.4,2.4-5.5,2.7c1.7,4.9,4.5,9.4,8.1,13
		c3.6,3.6,8.1,6.4,13,8.1c0.3-2.1,1.3-4.1,2.7-5.5l19,3c0.4,0.8,0.6,1.6,0.7,2.5c0.2,0.6,0.3,1.3,0.2,2C57,53.3,52,58.4,45.7,58.4
		C20.5,58.4,0.1,38,0,12.7C0.1,6.5,5.2,1.4,11.4,1.3z"/>
</g>
</svg>
